<mxfile host="app.diagrams.net" modified="2022-09-25T12:17:46.857Z" agent="5.0 (Windows NT 10.0; Win64; x64) AppleWebKit/537.36 (KHTML, like Gecko) Chrome/105.0.0.0 Safari/537.36" etag="3DHsJoJqT4vJSVaYNleo" version="20.3.3" type="github">
  <diagram id="XjY6N1T4f0wS-in8ysbR" name="Страница 1">
    <mxGraphModel dx="5688" dy="3216" grid="1" gridSize="10" guides="1" tooltips="1" connect="1" arrows="1" fold="1" page="1" pageScale="1" pageWidth="2339" pageHeight="3300" math="0" shadow="0">
      <root>
        <mxCell id="0" />
        <mxCell id="1" parent="0" />
        <mxCell id="__Wk3iUZt8YWgwVppyIx-51" value="quiz&amp;nbsp;" style="shape=umlFrame;whiteSpace=wrap;html=1;fontSize=12;" vertex="1" parent="1">
          <mxGeometry x="680" y="100" width="580" height="840" as="geometry" />
        </mxCell>
        <mxCell id="__Wk3iUZt8YWgwVppyIx-19" value="autorization" style="shape=umlFrame;whiteSpace=wrap;html=1;fontSize=6;" vertex="1" parent="1">
          <mxGeometry x="50" y="70" width="320" height="240" as="geometry" />
        </mxCell>
        <mxCell id="__Wk3iUZt8YWgwVppyIx-3" value="" style="ellipse;html=1;shape=startState;fillColor=#000000;strokeColor=#ff0000;" vertex="1" parent="1">
          <mxGeometry x="175" y="80" width="30" height="30" as="geometry" />
        </mxCell>
        <mxCell id="__Wk3iUZt8YWgwVppyIx-4" value="" style="edgeStyle=orthogonalEdgeStyle;html=1;verticalAlign=bottom;endArrow=open;endSize=8;strokeColor=#ff0000;rounded=0;" edge="1" source="__Wk3iUZt8YWgwVppyIx-3" parent="1">
          <mxGeometry relative="1" as="geometry">
            <mxPoint x="190" y="170" as="targetPoint" />
          </mxGeometry>
        </mxCell>
        <mxCell id="__Wk3iUZt8YWgwVppyIx-5" value="active session" style="rounded=1;whiteSpace=wrap;html=1;arcSize=40;fontColor=#000000;fillColor=#ffffc0;strokeColor=#ff0000;" vertex="1" parent="1">
          <mxGeometry x="130" y="170" width="120" height="40" as="geometry" />
        </mxCell>
        <mxCell id="__Wk3iUZt8YWgwVppyIx-7" value="expired session" style="rounded=1;whiteSpace=wrap;html=1;arcSize=40;fontColor=#000000;fillColor=#ffffc0;strokeColor=#ff0000;" vertex="1" parent="1">
          <mxGeometry x="130" y="260" width="120" height="40" as="geometry" />
        </mxCell>
        <mxCell id="__Wk3iUZt8YWgwVppyIx-11" value="" style="edgeStyle=orthogonalEdgeStyle;html=1;verticalAlign=bottom;endArrow=open;endSize=8;strokeColor=#ff0000;rounded=0;entryX=0.366;entryY=-0.05;entryDx=0;entryDy=0;exitX=0.361;exitY=1.047;exitDx=0;exitDy=0;exitPerimeter=0;entryPerimeter=0;" edge="1" source="__Wk3iUZt8YWgwVppyIx-5" parent="1" target="__Wk3iUZt8YWgwVppyIx-7">
          <mxGeometry relative="1" as="geometry">
            <mxPoint x="160" y="260" as="targetPoint" />
            <mxPoint x="160" y="220" as="sourcePoint" />
          </mxGeometry>
        </mxCell>
        <mxCell id="__Wk3iUZt8YWgwVppyIx-12" value="" style="edgeStyle=orthogonalEdgeStyle;html=1;verticalAlign=bottom;endArrow=open;endSize=8;strokeColor=#ff0000;rounded=0;entryX=0.616;entryY=1.033;entryDx=0;entryDy=0;entryPerimeter=0;exitX=0.611;exitY=-0.064;exitDx=0;exitDy=0;exitPerimeter=0;" edge="1" parent="1" source="__Wk3iUZt8YWgwVppyIx-7" target="__Wk3iUZt8YWgwVppyIx-5">
          <mxGeometry relative="1" as="geometry">
            <mxPoint x="405" y="340" as="targetPoint" />
            <mxPoint x="405" y="280" as="sourcePoint" />
            <Array as="points">
              <mxPoint x="203" y="250" />
              <mxPoint x="204" y="250" />
            </Array>
          </mxGeometry>
        </mxCell>
        <mxCell id="__Wk3iUZt8YWgwVppyIx-14" value="create token" style="text;html=1;strokeColor=none;fillColor=none;align=center;verticalAlign=middle;whiteSpace=wrap;rounded=0;" vertex="1" parent="1">
          <mxGeometry x="190" y="120" width="70" height="20" as="geometry" />
        </mxCell>
        <mxCell id="__Wk3iUZt8YWgwVppyIx-15" value="token expired" style="text;html=1;strokeColor=none;fillColor=none;align=center;verticalAlign=middle;whiteSpace=wrap;rounded=0;" vertex="1" parent="1">
          <mxGeometry x="100" y="220" width="75" height="20" as="geometry" />
        </mxCell>
        <mxCell id="__Wk3iUZt8YWgwVppyIx-16" value="regenerate token" style="text;html=1;strokeColor=none;fillColor=none;align=center;verticalAlign=middle;whiteSpace=wrap;rounded=0;" vertex="1" parent="1">
          <mxGeometry x="205" y="220" width="95" height="20" as="geometry" />
        </mxCell>
        <mxCell id="__Wk3iUZt8YWgwVppyIx-20" value="" style="ellipse;html=1;shape=startState;fillColor=#000000;strokeColor=#ff0000;fontSize=6;" vertex="1" parent="1">
          <mxGeometry x="175" y="340" width="30" height="30" as="geometry" />
        </mxCell>
        <mxCell id="__Wk3iUZt8YWgwVppyIx-21" value="" style="edgeStyle=orthogonalEdgeStyle;html=1;verticalAlign=bottom;endArrow=open;endSize=8;strokeColor=#ff0000;rounded=0;fontSize=6;exitX=0.5;exitY=1;exitDx=0;exitDy=0;" edge="1" source="__Wk3iUZt8YWgwVppyIx-20" parent="1">
          <mxGeometry relative="1" as="geometry">
            <mxPoint x="190" y="450" as="targetPoint" />
            <mxPoint x="190" y="380" as="sourcePoint" />
          </mxGeometry>
        </mxCell>
        <mxCell id="__Wk3iUZt8YWgwVppyIx-22" value="&lt;font style=&quot;font-size: 12px;&quot;&gt;message written&lt;br&gt;(saved in cache)&lt;br&gt;&lt;/font&gt;" style="rounded=1;whiteSpace=wrap;html=1;arcSize=40;fontColor=#000000;fillColor=#ffffc0;strokeColor=#ff0000;fontSize=6;" vertex="1" parent="1">
          <mxGeometry x="130" y="450" width="120" height="40" as="geometry" />
        </mxCell>
        <mxCell id="__Wk3iUZt8YWgwVppyIx-23" value="" style="edgeStyle=orthogonalEdgeStyle;html=1;verticalAlign=bottom;endArrow=open;endSize=8;strokeColor=#ff0000;rounded=0;fontSize=6;entryX=0.5;entryY=0;entryDx=0;entryDy=0;exitX=0.5;exitY=1;exitDx=0;exitDy=0;" edge="1" source="__Wk3iUZt8YWgwVppyIx-22" parent="1" target="__Wk3iUZt8YWgwVppyIx-24">
          <mxGeometry relative="1" as="geometry">
            <mxPoint x="190" y="550" as="targetPoint" />
            <mxPoint x="190" y="500" as="sourcePoint" />
          </mxGeometry>
        </mxCell>
        <mxCell id="__Wk3iUZt8YWgwVppyIx-24" value="&lt;font style=&quot;font-size: 12px;&quot;&gt;message sent&lt;/font&gt;" style="rounded=1;whiteSpace=wrap;html=1;arcSize=40;fontColor=#000000;fillColor=#ffffc0;strokeColor=#ff0000;fontSize=6;" vertex="1" parent="1">
          <mxGeometry x="130" y="560" width="120" height="40" as="geometry" />
        </mxCell>
        <mxCell id="__Wk3iUZt8YWgwVppyIx-25" value="" style="edgeStyle=orthogonalEdgeStyle;html=1;verticalAlign=bottom;endArrow=open;endSize=8;strokeColor=#ff0000;rounded=0;fontSize=6;entryX=0.5;entryY=0;entryDx=0;entryDy=0;exitX=0.5;exitY=1;exitDx=0;exitDy=0;" edge="1" source="__Wk3iUZt8YWgwVppyIx-24" parent="1" target="__Wk3iUZt8YWgwVppyIx-26">
          <mxGeometry relative="1" as="geometry">
            <mxPoint x="190" y="660" as="targetPoint" />
            <mxPoint x="190" y="610" as="sourcePoint" />
          </mxGeometry>
        </mxCell>
        <mxCell id="__Wk3iUZt8YWgwVppyIx-26" value="&lt;font style=&quot;font-size: 12px;&quot;&gt;message read&lt;/font&gt;" style="rounded=1;whiteSpace=wrap;html=1;arcSize=40;fontColor=#000000;fillColor=#ffffc0;strokeColor=#ff0000;fontSize=6;" vertex="1" parent="1">
          <mxGeometry x="130" y="670" width="120" height="40" as="geometry" />
        </mxCell>
        <mxCell id="__Wk3iUZt8YWgwVppyIx-27" value="" style="edgeStyle=orthogonalEdgeStyle;html=1;verticalAlign=bottom;endArrow=open;endSize=8;strokeColor=#ff0000;rounded=0;fontSize=6;exitX=0.5;exitY=1;exitDx=0;exitDy=0;entryX=0.5;entryY=0;entryDx=0;entryDy=0;" edge="1" source="__Wk3iUZt8YWgwVppyIx-26" parent="1" target="__Wk3iUZt8YWgwVppyIx-28">
          <mxGeometry relative="1" as="geometry">
            <mxPoint x="190" y="770" as="targetPoint" />
            <mxPoint x="190" y="720" as="sourcePoint" />
          </mxGeometry>
        </mxCell>
        <mxCell id="__Wk3iUZt8YWgwVppyIx-28" value="" style="ellipse;html=1;shape=endState;fillColor=#000000;strokeColor=#ff0000;fontSize=6;" vertex="1" parent="1">
          <mxGeometry x="175" y="770" width="30" height="30" as="geometry" />
        </mxCell>
        <mxCell id="__Wk3iUZt8YWgwVppyIx-29" value="write message" style="text;html=1;strokeColor=none;fillColor=none;align=center;verticalAlign=middle;whiteSpace=wrap;rounded=0;" vertex="1" parent="1">
          <mxGeometry x="200" y="390" width="80" height="20" as="geometry" />
        </mxCell>
        <mxCell id="__Wk3iUZt8YWgwVppyIx-30" value="send message" style="text;html=1;strokeColor=none;fillColor=none;align=center;verticalAlign=middle;whiteSpace=wrap;rounded=0;" vertex="1" parent="1">
          <mxGeometry x="205" y="510" width="85" height="20" as="geometry" />
        </mxCell>
        <mxCell id="__Wk3iUZt8YWgwVppyIx-31" value="recipient read message" style="text;html=1;strokeColor=none;fillColor=none;align=center;verticalAlign=middle;whiteSpace=wrap;rounded=0;" vertex="1" parent="1">
          <mxGeometry x="205" y="620" width="95" height="20" as="geometry" />
        </mxCell>
        <mxCell id="__Wk3iUZt8YWgwVppyIx-32" value="messeges" style="shape=umlFrame;whiteSpace=wrap;html=1;fontSize=12;" vertex="1" parent="1">
          <mxGeometry x="50" y="340" width="320" height="470" as="geometry" />
        </mxCell>
        <mxCell id="__Wk3iUZt8YWgwVppyIx-33" value="" style="ellipse;html=1;shape=startState;fillColor=#000000;strokeColor=#ff0000;fontSize=12;" vertex="1" parent="1">
          <mxGeometry x="880" y="120" width="30" height="30" as="geometry" />
        </mxCell>
        <mxCell id="__Wk3iUZt8YWgwVppyIx-34" value="" style="edgeStyle=orthogonalEdgeStyle;html=1;verticalAlign=bottom;endArrow=open;endSize=8;strokeColor=#ff0000;rounded=0;fontSize=12;" edge="1" source="__Wk3iUZt8YWgwVppyIx-33" parent="1">
          <mxGeometry relative="1" as="geometry">
            <mxPoint x="895" y="210" as="targetPoint" />
          </mxGeometry>
        </mxCell>
        <mxCell id="__Wk3iUZt8YWgwVppyIx-37" value="quiz selected" style="rounded=1;whiteSpace=wrap;html=1;arcSize=40;fontColor=#000000;fillColor=#ffffc0;strokeColor=#ff0000;fontSize=12;" vertex="1" parent="1">
          <mxGeometry x="835" y="220" width="120" height="40" as="geometry" />
        </mxCell>
        <mxCell id="__Wk3iUZt8YWgwVppyIx-38" value="" style="edgeStyle=orthogonalEdgeStyle;html=1;verticalAlign=bottom;endArrow=open;endSize=8;strokeColor=#ff0000;rounded=0;fontSize=12;" edge="1" source="__Wk3iUZt8YWgwVppyIx-37" parent="1">
          <mxGeometry relative="1" as="geometry">
            <mxPoint x="895" y="320" as="targetPoint" />
          </mxGeometry>
        </mxCell>
        <mxCell id="__Wk3iUZt8YWgwVppyIx-39" value="quiz is solving" style="rounded=1;whiteSpace=wrap;html=1;arcSize=40;fontColor=#000000;fillColor=#ffffc0;strokeColor=#ff0000;fontSize=12;" vertex="1" parent="1">
          <mxGeometry x="835" y="330" width="120" height="40" as="geometry" />
        </mxCell>
        <mxCell id="__Wk3iUZt8YWgwVppyIx-40" value="" style="edgeStyle=orthogonalEdgeStyle;html=1;verticalAlign=bottom;endArrow=open;endSize=8;strokeColor=#ff0000;rounded=0;fontSize=12;" edge="1" source="__Wk3iUZt8YWgwVppyIx-39" parent="1">
          <mxGeometry relative="1" as="geometry">
            <mxPoint x="895" y="430" as="targetPoint" />
          </mxGeometry>
        </mxCell>
        <mxCell id="__Wk3iUZt8YWgwVppyIx-41" value="" style="rhombus;whiteSpace=wrap;html=1;fillColor=#ffffc0;strokeColor=#ff0000;fontSize=12;" vertex="1" parent="1">
          <mxGeometry x="855" y="440" width="80" height="40" as="geometry" />
        </mxCell>
        <mxCell id="__Wk3iUZt8YWgwVppyIx-42" value="time&amp;lt;0" style="edgeStyle=orthogonalEdgeStyle;html=1;align=left;verticalAlign=bottom;endArrow=open;endSize=8;strokeColor=#ff0000;rounded=0;fontSize=12;" edge="1" source="__Wk3iUZt8YWgwVppyIx-41" parent="1">
          <mxGeometry x="-0.5238" relative="1" as="geometry">
            <mxPoint x="950" y="550" as="targetPoint" />
            <Array as="points">
              <mxPoint x="950" y="460" />
              <mxPoint x="950" y="540" />
            </Array>
            <mxPoint as="offset" />
          </mxGeometry>
        </mxCell>
        <mxCell id="__Wk3iUZt8YWgwVppyIx-43" value="time &amp;gt; 0" style="edgeStyle=orthogonalEdgeStyle;html=1;align=left;verticalAlign=top;endArrow=open;endSize=8;strokeColor=#ff0000;rounded=0;fontSize=12;" edge="1" source="__Wk3iUZt8YWgwVppyIx-41" parent="1">
          <mxGeometry x="-0.7273" y="-51" relative="1" as="geometry">
            <mxPoint x="845" y="550" as="targetPoint" />
            <Array as="points">
              <mxPoint x="840" y="460" />
              <mxPoint x="840" y="550" />
            </Array>
            <mxPoint x="1" y="-10" as="offset" />
          </mxGeometry>
        </mxCell>
        <mxCell id="__Wk3iUZt8YWgwVppyIx-44" value="" style="ellipse;html=1;shape=endState;fillColor=#000000;strokeColor=#ff0000;fontSize=12;" vertex="1" parent="1">
          <mxGeometry x="830" y="550" width="30" height="30" as="geometry" />
        </mxCell>
        <mxCell id="__Wk3iUZt8YWgwVppyIx-45" value="" style="rhombus;whiteSpace=wrap;html=1;fillColor=#ffffc0;strokeColor=#ff0000;fontSize=12;" vertex="1" parent="1">
          <mxGeometry x="910" y="550" width="80" height="40" as="geometry" />
        </mxCell>
        <mxCell id="__Wk3iUZt8YWgwVppyIx-46" value="question left" style="edgeStyle=orthogonalEdgeStyle;html=1;align=left;verticalAlign=bottom;endArrow=open;endSize=8;strokeColor=#ff0000;rounded=0;fontSize=12;entryX=1;entryY=0.5;entryDx=0;entryDy=0;" edge="1" source="__Wk3iUZt8YWgwVppyIx-45" parent="1" target="__Wk3iUZt8YWgwVppyIx-39">
          <mxGeometry x="-0.4744" y="-20" relative="1" as="geometry">
            <mxPoint x="1020" y="720" as="targetPoint" />
            <Array as="points">
              <mxPoint x="1110" y="570" />
              <mxPoint x="1110" y="350" />
            </Array>
            <mxPoint as="offset" />
          </mxGeometry>
        </mxCell>
        <mxCell id="__Wk3iUZt8YWgwVppyIx-47" value="question &lt;br&gt;is over" style="edgeStyle=orthogonalEdgeStyle;html=1;align=left;verticalAlign=top;endArrow=open;endSize=8;strokeColor=#ff0000;rounded=0;fontSize=12;entryX=0.5;entryY=0;entryDx=0;entryDy=0;" edge="1" source="__Wk3iUZt8YWgwVppyIx-45" parent="1" target="__Wk3iUZt8YWgwVppyIx-48">
          <mxGeometry x="-0.1765" y="-60" relative="1" as="geometry">
            <mxPoint x="890" y="720" as="targetPoint" />
            <Array as="points">
              <mxPoint x="895" y="570" />
            </Array>
            <mxPoint as="offset" />
          </mxGeometry>
        </mxCell>
        <mxCell id="__Wk3iUZt8YWgwVppyIx-48" value="" style="ellipse;html=1;shape=endState;fillColor=#000000;strokeColor=#ff0000;fontSize=12;" vertex="1" parent="1">
          <mxGeometry x="880" y="900" width="30" height="30" as="geometry" />
        </mxCell>
        <mxCell id="__Wk3iUZt8YWgwVppyIx-49" value="select quiz" style="text;html=1;strokeColor=none;fillColor=none;align=center;verticalAlign=middle;whiteSpace=wrap;rounded=0;fontSize=12;" vertex="1" parent="1">
          <mxGeometry x="920" y="160" width="60" height="30" as="geometry" />
        </mxCell>
        <mxCell id="__Wk3iUZt8YWgwVppyIx-50" value="start quiz" style="text;html=1;strokeColor=none;fillColor=none;align=center;verticalAlign=middle;whiteSpace=wrap;rounded=0;fontSize=12;" vertex="1" parent="1">
          <mxGeometry x="920" y="280" width="60" height="30" as="geometry" />
        </mxCell>
      </root>
    </mxGraphModel>
  </diagram>
</mxfile>
